REM DIRINDEX 1\6,1\2\7,1\2\8,1\2\9,1\3\10,1\3\11,1\4\12,1\4\13,1\4\14,1\5\15,1\5\16,1\5\17
REM DIRNAME cjc040,folder01,folder02,folder03,folder04,folder05,folder06,folder07,folder08,folder09,folder10,folder11,folder12,folder13,folder14,folder15,folder16
TITLE ""
FILE "P2Q_t2_0511-0528.mp3" MP3
  TRACK 01 AUDIO
    TITLE "7:cjc040_5363"
    INDEX 01 00:00:00
  TRACK 02 AUDIO
    TITLE "0:"
    INDEX 01 00:01:05
  TRACK 03 AUDIO
    TITLE "8:cjc040_5364"
    INDEX 01 00:01:58
  TRACK 04 AUDIO
    TITLE "0:"
    INDEX 01 00:02:71
  TRACK 05 AUDIO
    TITLE "9:cjc040_5365"
    INDEX 01 00:03:51
  TRACK 06 AUDIO
    TITLE "0:"
    INDEX 01 00:04:68
  TRACK 07 AUDIO
    TITLE "7:cjc040_5366"
    INDEX 01 00:06:49
  TRACK 08 AUDIO
    TITLE "0:"
    INDEX 01 00:07:68
  TRACK 09 AUDIO
    TITLE "8:cjc040_5367"
    INDEX 01 00:08:48
  TRACK 10 AUDIO
    TITLE "0:"
    INDEX 01 00:09:63
  TRACK 11 AUDIO
    TITLE "9:cjc040_5368"
    INDEX 01 00:10:47
  TRACK 12 AUDIO
    TITLE "0:"
    INDEX 01 00:11:64
  TRACK 13 AUDIO
    TITLE "7:cjc040_5369"
    INDEX 01 00:13:45
  TRACK 14 AUDIO
    TITLE "0:"
    INDEX 01 00:14:47
  TRACK 15 AUDIO
    TITLE "8:cjc040_5370"
    INDEX 01 00:15:27
  TRACK 16 AUDIO
    TITLE "0:"
    INDEX 01 00:18:50
  TRACK 17 AUDIO
    TITLE "9:cjc040_5371"
    INDEX 01 00:19:24
  TRACK 18 AUDIO
    TITLE "0:"
    INDEX 01 00:20:28
  TRACK 19 AUDIO
    TITLE "7:cjc040_5372"
    INDEX 01 00:22:15
  TRACK 20 AUDIO
    TITLE "0:"
    INDEX 01 00:23:38
  TRACK 21 AUDIO
    TITLE "8:cjc040_5373"
    INDEX 01 00:24:10
  TRACK 22 AUDIO
    TITLE "0:"
    INDEX 01 00:25:29
  TRACK 23 AUDIO
    TITLE "9:cjc040_5374"
    INDEX 01 00:26:05
  TRACK 24 AUDIO
    TITLE "0:"
    INDEX 01 00:27:32
  TRACK 25 AUDIO
    TITLE "7:cjc040_5375"
    INDEX 01 00:29:09
  TRACK 26 AUDIO
    TITLE "0:"
    INDEX 01 00:30:38
  TRACK 27 AUDIO
    TITLE "8:cjc040_5376"
    INDEX 01 00:31:14
  TRACK 28 AUDIO
    TITLE "0:"
    INDEX 01 00:34:14
  TRACK 29 AUDIO
    TITLE "9:cjc040_5377"
    INDEX 01 00:34:69
  TRACK 30 AUDIO
    TITLE "0:"
    INDEX 01 00:36:19
  TRACK 31 AUDIO
    TITLE "7:cjc040_5378"
    INDEX 01 00:38:02
  TRACK 32 AUDIO
    TITLE "0:"
    INDEX 01 00:39:21
  TRACK 33 AUDIO
    TITLE "8:cjc040_5379"
    INDEX 01 00:39:72
  TRACK 34 AUDIO
    TITLE "0:"
    INDEX 01 00:42:70
  TRACK 35 AUDIO
    TITLE "9:cjc040_5380"
    INDEX 01 00:43:48
  TRACK 36 AUDIO
    TITLE "0:"
    INDEX 01 00:44:71
  TRACK 37 AUDIO
    TITLE "7:cjc040_5381"
    INDEX 01 00:46:53
  TRACK 38 AUDIO
    TITLE "0:"
    INDEX 01 00:48:10
  TRACK 39 AUDIO
    TITLE "8:cjc040_5382"
    INDEX 01 00:48:63
  TRACK 40 AUDIO
    TITLE "0:"
    INDEX 01 00:51:16
  TRACK 41 AUDIO
    TITLE "9:cjc040_5383"
    INDEX 01 00:51:71
  TRACK 42 AUDIO
    TITLE "0:"
    INDEX 01 00:53:29
  TRACK 43 AUDIO
    TITLE "7:cjc040_5384"
    INDEX 01 00:55:14
  TRACK 44 AUDIO
    TITLE "0:"
    INDEX 01 00:56:37
  TRACK 45 AUDIO
    TITLE "8:cjc040_5385"
    INDEX 01 00:57:15
  TRACK 46 AUDIO
    TITLE "0:"
    INDEX 01 00:58:28
  TRACK 47 AUDIO
    TITLE "9:cjc040_5386"
    INDEX 01 00:59:06
  TRACK 48 AUDIO
    TITLE "0:"
    INDEX 01 01:00:29
  TRACK 49 AUDIO
    TITLE "7:cjc040_5387"
    INDEX 01 01:02:16
  TRACK 50 AUDIO
    TITLE "0:"
    INDEX 01 01:03:43
  TRACK 51 AUDIO
    TITLE "8:cjc040_5388"
    INDEX 01 01:04:17
  TRACK 52 AUDIO
    TITLE "0:"
    INDEX 01 01:06:32
  TRACK 53 AUDIO
    TITLE "9:cjc040_5389"
    INDEX 01 01:07:14
  TRACK 54 AUDIO
    TITLE "0:"
    INDEX 01 01:08:44
  TRACK 55 AUDIO
    TITLE "7:cjc040_5390"
    INDEX 01 01:10:22
  TRACK 56 AUDIO
    TITLE "0:"
    INDEX 01 01:11:35
  TRACK 57 AUDIO
    TITLE "8:cjc040_5391"
    INDEX 01 01:12:15
  TRACK 58 AUDIO
    TITLE "0:"
    INDEX 01 01:13:57
  TRACK 59 AUDIO
    TITLE "9:cjc040_5392"
    INDEX 01 01:14:35
  TRACK 60 AUDIO
    TITLE "0:"
    INDEX 01 01:15:52
  TRACK 61 AUDIO
    TITLE "7:cjc040_5393"
    INDEX 01 01:17:35
  TRACK 62 AUDIO
    TITLE "0:"
    INDEX 01 01:18:47
  TRACK 63 AUDIO
    TITLE "8:cjc040_5394"
    INDEX 01 01:19:27
  TRACK 64 AUDIO
    TITLE "0:"
    INDEX 01 01:21:31
  TRACK 65 AUDIO
    TITLE "9:cjc040_5395"
    INDEX 01 01:22:11
  TRACK 66 AUDIO
    TITLE "0:"
    INDEX 01 01:23:24
  TRACK 67 AUDIO
    TITLE "7:cjc040_5396"
    INDEX 01 01:25:09
  TRACK 68 AUDIO
    TITLE "0:"
    INDEX 01 01:26:44
  TRACK 69 AUDIO
    TITLE "8:cjc040_5397"
    INDEX 01 01:27:22
  TRACK 70 AUDIO
    TITLE "0:"
    INDEX 01 01:28:35
  TRACK 71 AUDIO
    TITLE "9:cjc040_5398"
    INDEX 01 01:29:03
  TRACK 72 AUDIO
    TITLE "0:"
    INDEX 01 01:30:44
  TRACK 73 AUDIO
    TITLE "7:cjc040_5399"
    INDEX 01 01:32:27
  TRACK 74 AUDIO
    TITLE "0:"
    INDEX 01 01:33:56
  TRACK 75 AUDIO
    TITLE "8:cjc040_5400"
    INDEX 01 01:34:34
  TRACK 76 AUDIO
    TITLE "0:"
    INDEX 01 01:37:17
  TRACK 77 AUDIO
    TITLE "9:cjc040_5401"
    INDEX 01 01:37:73
  TRACK 78 AUDIO
    TITLE "0:"
    INDEX 01 01:39:27
  TRACK 79 AUDIO
    TITLE "7:cjc040_5402"
    INDEX 01 01:41:09
  TRACK 80 AUDIO
    TITLE "0:"
    INDEX 01 01:42:22
  TRACK 81 AUDIO
    TITLE "8:cjc040_5403"
    INDEX 01 01:43:07
  TRACK 82 AUDIO
    TITLE "0:"
    INDEX 01 01:44:68
  TRACK 83 AUDIO
    TITLE "9:cjc040_5404"
    INDEX 01 01:45:45
  TRACK 84 AUDIO
    TITLE "0:"
    INDEX 01 01:46:61
  TRACK 85 AUDIO
    TITLE "7:cjc040_5405"
    INDEX 01 01:48:44
  TRACK 86 AUDIO
    TITLE "0:"
    INDEX 01 01:49:71
  TRACK 87 AUDIO
    TITLE "8:cjc040_5406"
    INDEX 01 01:50:51
  TRACK 88 AUDIO
    TITLE "0:"
    INDEX 01 01:53:04
  TRACK 89 AUDIO
    TITLE "9:cjc040_5407"
    INDEX 01 01:53:57
  TRACK 90 AUDIO
    TITLE "0:"
    INDEX 01 01:55:13
  TRACK 91 AUDIO
    TITLE "7:cjc040_5408"
    INDEX 01 01:56:61
  TRACK 92 AUDIO
    TITLE "0:"
    INDEX 01 01:58:01
  TRACK 93 AUDIO
    TITLE "8:cjc040_5409"
    INDEX 01 01:58:62
  TRACK 94 AUDIO
    TITLE "0:"
    INDEX 01 01:59:53
  TRACK 95 AUDIO
    TITLE "9:cjc040_5410"
    INDEX 01 02:00:25
  TRACK 96 AUDIO
    TITLE "0:"
    INDEX 01 02:01:43
  TRACK 97 AUDIO
    TITLE "7:cjc040_5411"
    INDEX 01 02:03:32
  TRACK 98 AUDIO
    TITLE "0:"
    INDEX 01 02:04:59
  TRACK 99 AUDIO
    TITLE "8:cjc040_5412"
    INDEX 01 02:05:34
  TRACK 100 AUDIO
    TITLE "0:"
    INDEX 01 02:06:40
  TRACK 101 AUDIO
    TITLE "9:cjc040_5413"
    INDEX 01 02:07:24
  TRACK 102 AUDIO
    TITLE "0:"
    INDEX 01 02:08:58
  TRACK 103 AUDIO
    TITLE "7:cjc040_5414"
    INDEX 01 02:10:40
  TRACK 104 AUDIO
    TITLE "0:"
    INDEX 01 02:11:47
  TRACK 105 AUDIO
    TITLE "8:cjc040_5415"
    INDEX 01 02:12:25
  TRACK 106 AUDIO
    TITLE "0:"
    INDEX 01 02:13:38
  TRACK 107 AUDIO
    TITLE "9:cjc040_5416"
    INDEX 01 02:14:12
  TRACK 108 AUDIO
    TITLE "0:"
    INDEX 01 02:15:23
